<?xml version="1.0" encoding="utf-8" standalone="no"?>
<!DOCTYPE svg PUBLIC "-//W3C//DTD SVG 1.1//EN"
  "http://www.w3.org/Graphics/SVG/1.1/DTD/svg11.dtd">
<svg xmlns:xlink="http://www.w3.org/1999/xlink" width="424.398125pt" height="278.437804pt" viewBox="0 0 424.398125 278.437804" xmlns="http://www.w3.org/2000/svg" version="1.1">
 <metadata>
  <rdf:RDF xmlns:dc="http://purl.org/dc/elements/1.1/" xmlns:cc="http://creativecommons.org/ns#" xmlns:rdf="http://www.w3.org/1999/02/22-rdf-syntax-ns#">
   <cc:Work>
    <dc:type rdf:resource="http://purl.org/dc/dcmitype/StillImage"/>
    <dc:date>2025-08-23T10:51:14.812838</dc:date>
    <dc:format>image/svg+xml</dc:format>
    <dc:creator>
     <cc:Agent>
      <dc:title>Matplotlib v3.10.3, https://matplotlib.org/</dc:title>
     </cc:Agent>
    </dc:creator>
   </cc:Work>
  </rdf:RDF>
 </metadata>
 <defs>
  <style type="text/css">*{stroke-linejoin: round; stroke-linecap: butt}</style>
 </defs>
 <g id="figure_1">
  <g id="patch_1">
   <path d="M 0 278.437804 
L 424.398125 278.437804 
L 424.398125 0 
L 0 0 
z
" style="fill: #ffffff"/>
  </g>
  <g id="axes_1">
   <g id="patch_2">
    <path d="M 20.878125 243.2734 
L 417.198125 243.2734 
L 417.198125 7.2 
L 20.878125 7.2 
z
" style="fill: #ffffff"/>
   </g>
   <g id="patch_3">
    <path d="M 38.89267 243.2734 
L 38.89267 80.464159 
L 399.18358 130.463456 
L 399.18358 243.2734 
z
" clip-path="url(#p49c4eed1f4)" style="fill: #00bcd4; opacity: 0.25; stroke: #00bcd4; stroke-width: 2; stroke-linejoin: miter"/>
   </g>
   <g id="patch_4">
    <path d="M 38.89267 243.2734 
L 399.18358 243.2734 
L 399.18358 211.364018 
L 38.89267 211.364018 
z
" clip-path="url(#p49c4eed1f4)" style="fill: #ff9800; opacity: 0.25; stroke: #ff9800; stroke-width: 2; stroke-linejoin: miter"/>
   </g>
   <g id="patch_5">
    <path d="M 38.89267 243.2734 
L 399.18358 243.2734 
L 399.18358 80.464159 
L 38.89267 80.464159 
z
" clip-path="url(#p49c4eed1f4)" style="fill: #2e7d32; opacity: 0.18; stroke: #2e7d32; stroke-width: 1.2; stroke-linejoin: miter"/>
   </g>
   <g id="patch_6">
    <path d="M 38.89267 243.2734 
L 38.89267 80.464159 
L 219.038125 211.364018 
L 219.038125 243.2734 
z
" clip-path="url(#p49c4eed1f4)" style="fill: #0d47a1; opacity: 0.15; stroke: #0d47a1; stroke-width: 1.2; stroke-linejoin: miter"/>
   </g>
   <g id="patch_7">
    <path d="M 219.038125 243.2734 
L 219.038125 211.364018 
L 399.18358 130.463456 
L 399.18358 243.2734 
z
" clip-path="url(#p49c4eed1f4)" style="fill: #0d47a1; opacity: 0.15; stroke: #0d47a1; stroke-width: 1.2; stroke-linejoin: miter"/>
   </g>
   <g id="matplotlib.axis_1"/>
   <g id="matplotlib.axis_2">
    <g id="text_1">
     <!-- f -->
     <g transform="translate(14.798438 126.996856) rotate(-90) scale(0.1 -0.1)">
      <defs>
       <path id="DejaVuSans-66" d="M 2375 4863 
L 2375 4384 
L 1825 4384 
Q 1516 4384 1395 4259 
Q 1275 4134 1275 3809 
L 1275 3500 
L 2222 3500 
L 2222 3053 
L 1275 3053 
L 1275 0 
L 697 0 
L 697 3053 
L 147 3053 
L 147 3500 
L 697 3500 
L 697 3744 
Q 697 4328 969 4595 
Q 1241 4863 1831 4863 
L 2375 4863 
z
" transform="scale(0.015625)"/>
      </defs>
      <use xlink:href="#DejaVuSans-66"/>
     </g>
    </g>
   </g>
   <g id="line2d_1">
    <path d="M 38.89267 80.464159 
L 42.951016 80.580112 
L 47.009362 80.927599 
L 51.067707 81.505506 
L 55.126053 82.311982 
L 59.184399 83.344442 
L 63.242744 84.599577 
L 67.30109 86.073364 
L 71.810363 87.961581 
L 76.319636 90.10642 
L 80.828909 92.499396 
L 85.338182 95.131041 
L 90.298382 98.28906 
L 95.258582 101.708133 
L 100.66971 105.716499 
L 106.080837 109.993209 
L 111.942892 114.900839 
L 118.255874 120.468511 
L 125.470711 127.136085 
L 133.587403 134.94447 
L 144.409658 145.694173 
L 171.465295 172.735419 
L 180.032914 180.888796 
L 187.247751 187.448757 
L 193.560733 192.903376 
L 199.422788 197.691039 
L 204.833915 201.844906 
L 210.245043 205.719529 
L 215.205243 209.007076 
L 220.165443 212.025677 
L 224.674716 214.524292 
L 229.183989 216.778794 
L 233.693262 218.780263 
L 238.202535 220.520781 
L 242.260881 221.858419 
L 246.319226 222.974808 
L 250.377572 223.86637 
L 254.435918 224.530248 
L 258.494263 224.964313 
L 262.552609 225.167175 
L 266.610955 225.138183 
L 270.6693 224.87743 
L 274.727646 224.385753 
L 278.785992 223.664726 
L 282.844337 222.716661 
L 286.902683 221.544596 
L 290.961029 220.152288 
L 295.019374 218.544198 
L 299.528647 216.510646 
L 304.03792 214.225122 
L 308.547193 211.696668 
L 313.507393 208.646752 
L 318.467594 205.329615 
L 323.878721 201.424847 
L 329.289849 197.243227 
L 335.151904 192.428381 
L 341.464886 186.948044 
L 348.228795 180.783866 
L 355.894559 173.500074 
L 365.364032 164.185516 
L 382.950197 146.487344 
L 395.125234 134.39365 
L 399.18358 130.463456 
L 399.18358 130.463456 
" clip-path="url(#p49c4eed1f4)" style="fill: none; stroke: #000000; stroke-width: 2; stroke-linecap: square"/>
   </g>
   <g id="line2d_2">
    <path d="M 20.878125 243.2734 
L 417.198125 243.2734 
" clip-path="url(#p49c4eed1f4)" style="fill: none; stroke: #000000; stroke-linecap: square"/>
   </g>
   <g id="line2d_3">
    <path d="M 38.89267 243.2734 
L 38.89267 7.2 
" clip-path="url(#p49c4eed1f4)" style="fill: none; stroke-dasharray: 3.7,1.6; stroke-dashoffset: 0; stroke: #808080"/>
   </g>
   <g id="line2d_4">
    <path d="M 399.18358 243.2734 
L 399.18358 7.2 
" clip-path="url(#p49c4eed1f4)" style="fill: none; stroke-dasharray: 3.7,1.6; stroke-dashoffset: 0; stroke: #808080"/>
   </g>
   <g id="line2d_5">
    <path d="M 219.038125 243.2734 
L 219.038125 7.2 
" clip-path="url(#p49c4eed1f4)" style="fill: none; stroke-dasharray: 1,1.65; stroke-dashoffset: 0; stroke: #808080"/>
   </g>
   <g id="line2d_6">
    <path d="M 38.89267 80.464159 
L 399.18358 130.463456 
" clip-path="url(#p49c4eed1f4)" style="fill: none; stroke: #00bcd4; stroke-width: 2; stroke-linecap: square"/>
   </g>
   <g id="LineCollection_1">
    <path d="M 38.89267 211.364018 
L 399.18358 211.364018 
" clip-path="url(#p49c4eed1f4)" style="fill: none; stroke: #ff9800; stroke-width: 2"/>
   </g>
   <g id="LineCollection_2">
    <path d="M 38.89267 80.464159 
L 399.18358 80.464159 
" clip-path="url(#p49c4eed1f4)" style="fill: none; stroke: #2e7d32; stroke-width: 2"/>
   </g>
   <g id="line2d_7">
    <path d="M 38.89267 80.464159 
L 219.038125 211.364018 
L 399.18358 130.463456 
" clip-path="url(#p49c4eed1f4)" style="fill: none; stroke: #0d47a1; stroke-width: 2; stroke-linecap: square"/>
   </g>
   <g id="patch_8">
    <path d="M 20.878125 243.2734 
L 20.878125 7.2 
" style="fill: none; stroke: #000000; stroke-width: 0.8; stroke-linejoin: miter; stroke-linecap: square"/>
   </g>
   <g id="patch_9">
    <path d="M 417.198125 243.2734 
L 417.198125 7.2 
" style="fill: none; stroke: #000000; stroke-width: 0.8; stroke-linejoin: miter; stroke-linecap: square"/>
   </g>
   <g id="patch_10">
    <path d="M 20.878125 243.2734 
L 417.198125 243.2734 
" style="fill: none; stroke: #000000; stroke-width: 0.8; stroke-linejoin: miter; stroke-linecap: square"/>
   </g>
   <g id="patch_11">
    <path d="M 20.878125 7.2 
L 417.198125 7.2 
" style="fill: none; stroke: #000000; stroke-width: 0.8; stroke-linejoin: miter; stroke-linecap: square"/>
   </g>
   <g id="text_2">
    <!-- a -->
    <g transform="translate(38.89267 265.036241) scale(0.1 -0.1)">
     <defs>
      <path id="DejaVuSans-61" d="M 2194 1759 
Q 1497 1759 1228 1600 
Q 959 1441 959 1056 
Q 959 750 1161 570 
Q 1363 391 1709 391 
Q 2188 391 2477 730 
Q 2766 1069 2766 1631 
L 2766 1759 
L 2194 1759 
z
M 3341 1997 
L 3341 0 
L 2766 0 
L 2766 531 
Q 2569 213 2275 61 
Q 1981 -91 1556 -91 
Q 1019 -91 701 211 
Q 384 513 384 1019 
Q 384 1609 779 1909 
Q 1175 2209 1959 2209 
L 2766 2209 
L 2766 2266 
Q 2766 2663 2505 2880 
Q 2244 3097 1772 3097 
Q 1472 3097 1187 3025 
Q 903 2953 641 2809 
L 641 3341 
Q 956 3463 1253 3523 
Q 1550 3584 1831 3584 
Q 2591 3584 2966 3190 
Q 3341 2797 3341 1997 
z
" transform="scale(0.015625)"/>
     </defs>
     <use xlink:href="#DejaVuSans-61"/>
    </g>
   </g>
   <g id="text_3">
    <!-- b -->
    <g transform="translate(392.835142 265.036241) scale(0.1 -0.1)">
     <defs>
      <path id="DejaVuSans-62" d="M 3116 1747 
Q 3116 2381 2855 2742 
Q 2594 3103 2138 3103 
Q 1681 3103 1420 2742 
Q 1159 2381 1159 1747 
Q 1159 1113 1420 752 
Q 1681 391 2138 391 
Q 2594 391 2855 752 
Q 3116 1113 3116 1747 
z
M 1159 2969 
Q 1341 3281 1617 3432 
Q 1894 3584 2278 3584 
Q 2916 3584 3314 3078 
Q 3713 2572 3713 1747 
Q 3713 922 3314 415 
Q 2916 -91 2278 -91 
Q 1894 -91 1617 61 
Q 1341 213 1159 525 
L 1159 0 
L 581 0 
L 581 4863 
L 1159 4863 
L 1159 2969 
z
" transform="scale(0.015625)"/>
     </defs>
     <use xlink:href="#DejaVuSans-62"/>
    </g>
   </g>
   <g id="text_4">
    <!-- $\frac{b-a}{2}$ -->
    <g transform="translate(209.738125 267.237804) scale(0.1 -0.1)">
     <defs>
      <path id="DejaVuSans-Oblique-62" d="M 3169 2138 
Q 3169 2591 2961 2847 
Q 2753 3103 2388 3103 
Q 2122 3103 1889 2973 
Q 1656 2844 1484 2597 
Q 1303 2338 1198 1995 
Q 1094 1653 1094 1313 
Q 1094 881 1298 636 
Q 1503 391 1863 391 
Q 2134 391 2365 517 
Q 2597 644 2772 891 
Q 2950 1147 3059 1487 
Q 3169 1828 3169 2138 
z
M 1381 2969 
Q 1594 3256 1914 3420 
Q 2234 3584 2584 3584 
Q 3122 3584 3439 3221 
Q 3756 2859 3756 2241 
Q 3756 1734 3570 1259 
Q 3384 784 3041 416 
Q 2816 172 2522 40 
Q 2228 -91 1906 -91 
Q 1566 -91 1316 65 
Q 1066 222 909 531 
L 806 0 
L 231 0 
L 1178 4863 
L 1753 4863 
L 1381 2969 
z
" transform="scale(0.015625)"/>
      <path id="DejaVuSans-2212" d="M 678 2272 
L 4684 2272 
L 4684 1741 
L 678 1741 
L 678 2272 
z
" transform="scale(0.015625)"/>
      <path id="DejaVuSans-Oblique-61" d="M 3438 1997 
L 3047 0 
L 2472 0 
L 2578 531 
Q 2325 219 2001 64 
Q 1678 -91 1281 -91 
Q 834 -91 548 182 
Q 263 456 263 884 
Q 263 1497 752 1853 
Q 1241 2209 2100 2209 
L 2900 2209 
L 2931 2363 
Q 2938 2388 2941 2417 
Q 2944 2447 2944 2509 
Q 2944 2788 2717 2942 
Q 2491 3097 2081 3097 
Q 1800 3097 1504 3025 
Q 1209 2953 897 2809 
L 997 3341 
Q 1322 3463 1633 3523 
Q 1944 3584 2234 3584 
Q 2853 3584 3176 3315 
Q 3500 3047 3500 2534 
Q 3500 2431 3484 2292 
Q 3469 2153 3438 1997 
z
M 2816 1759 
L 2241 1759 
Q 1534 1759 1195 1570 
Q 856 1381 856 984 
Q 856 709 1029 553 
Q 1203 397 1509 397 
Q 1978 397 2328 733 
Q 2678 1069 2791 1631 
L 2816 1759 
z
" transform="scale(0.015625)"/>
      <path id="DejaVuSans-32" d="M 1228 531 
L 3431 531 
L 3431 0 
L 469 0 
L 469 531 
Q 828 903 1448 1529 
Q 2069 2156 2228 2338 
Q 2531 2678 2651 2914 
Q 2772 3150 2772 3378 
Q 2772 3750 2511 3984 
Q 2250 4219 1831 4219 
Q 1534 4219 1204 4116 
Q 875 4013 500 3803 
L 500 4441 
Q 881 4594 1212 4672 
Q 1544 4750 1819 4750 
Q 2544 4750 2975 4387 
Q 3406 4025 3406 3419 
Q 3406 3131 3298 2873 
Q 3191 2616 2906 2266 
Q 2828 2175 2409 1742 
Q 1991 1309 1228 531 
z
" transform="scale(0.015625)"/>
     </defs>
     <use xlink:href="#DejaVuSans-Oblique-62" transform="translate(0 44.810938) scale(0.7)"/>
     <use xlink:href="#DejaVuSans-2212" transform="translate(58.071289 44.810938) scale(0.7)"/>
     <use xlink:href="#DejaVuSans-Oblique-61" transform="translate(130.361328 44.810938) scale(0.7)"/>
     <use xlink:href="#DejaVuSans-32" transform="translate(64 -39.3875) scale(0.7)"/>
     <path d="M 0 18.815625 
L 0 25.065625 
L 173.256836 25.065625 
L 173.256836 18.815625 
L 0 18.815625 
z
"/>
    </g>
   </g>
   <g id="legend_1">
    <g id="patch_12">
     <path d="M 241.61375 23.798437 
L 261.61375 23.798437 
L 261.61375 16.798437 
L 241.61375 16.798437 
z
" style="fill: #ff9800; opacity: 0.25; stroke: #ff9800; stroke-linejoin: miter"/>
    </g>
    <g id="text_5">
     <!-- Mittelpunktregel -->
     <g transform="translate(269.61375 23.798437) scale(0.1 -0.1)">
      <defs>
       <path id="DejaVuSans-4d" d="M 628 4666 
L 1569 4666 
L 2759 1491 
L 3956 4666 
L 4897 4666 
L 4897 0 
L 4281 0 
L 4281 4097 
L 3078 897 
L 2444 897 
L 1241 4097 
L 1241 0 
L 628 0 
L 628 4666 
z
" transform="scale(0.015625)"/>
       <path id="DejaVuSans-69" d="M 603 3500 
L 1178 3500 
L 1178 0 
L 603 0 
L 603 3500 
z
M 603 4863 
L 1178 4863 
L 1178 4134 
L 603 4134 
L 603 4863 
z
" transform="scale(0.015625)"/>
       <path id="DejaVuSans-74" d="M 1172 4494 
L 1172 3500 
L 2356 3500 
L 2356 3053 
L 1172 3053 
L 1172 1153 
Q 1172 725 1289 603 
Q 1406 481 1766 481 
L 2356 481 
L 2356 0 
L 1766 0 
Q 1100 0 847 248 
Q 594 497 594 1153 
L 594 3053 
L 172 3053 
L 172 3500 
L 594 3500 
L 594 4494 
L 1172 4494 
z
" transform="scale(0.015625)"/>
       <path id="DejaVuSans-65" d="M 3597 1894 
L 3597 1613 
L 953 1613 
Q 991 1019 1311 708 
Q 1631 397 2203 397 
Q 2534 397 2845 478 
Q 3156 559 3463 722 
L 3463 178 
Q 3153 47 2828 -22 
Q 2503 -91 2169 -91 
Q 1331 -91 842 396 
Q 353 884 353 1716 
Q 353 2575 817 3079 
Q 1281 3584 2069 3584 
Q 2775 3584 3186 3129 
Q 3597 2675 3597 1894 
z
M 3022 2063 
Q 3016 2534 2758 2815 
Q 2500 3097 2075 3097 
Q 1594 3097 1305 2825 
Q 1016 2553 972 2059 
L 3022 2063 
z
" transform="scale(0.015625)"/>
       <path id="DejaVuSans-6c" d="M 603 4863 
L 1178 4863 
L 1178 0 
L 603 0 
L 603 4863 
z
" transform="scale(0.015625)"/>
       <path id="DejaVuSans-70" d="M 1159 525 
L 1159 -1331 
L 581 -1331 
L 581 3500 
L 1159 3500 
L 1159 2969 
Q 1341 3281 1617 3432 
Q 1894 3584 2278 3584 
Q 2916 3584 3314 3078 
Q 3713 2572 3713 1747 
Q 3713 922 3314 415 
Q 2916 -91 2278 -91 
Q 1894 -91 1617 61 
Q 1341 213 1159 525 
z
M 3116 1747 
Q 3116 2381 2855 2742 
Q 2594 3103 2138 3103 
Q 1681 3103 1420 2742 
Q 1159 2381 1159 1747 
Q 1159 1113 1420 752 
Q 1681 391 2138 391 
Q 2594 391 2855 752 
Q 3116 1113 3116 1747 
z
" transform="scale(0.015625)"/>
       <path id="DejaVuSans-75" d="M 544 1381 
L 544 3500 
L 1119 3500 
L 1119 1403 
Q 1119 906 1312 657 
Q 1506 409 1894 409 
Q 2359 409 2629 706 
Q 2900 1003 2900 1516 
L 2900 3500 
L 3475 3500 
L 3475 0 
L 2900 0 
L 2900 538 
Q 2691 219 2414 64 
Q 2138 -91 1772 -91 
Q 1169 -91 856 284 
Q 544 659 544 1381 
z
M 1991 3584 
L 1991 3584 
z
" transform="scale(0.015625)"/>
       <path id="DejaVuSans-6e" d="M 3513 2113 
L 3513 0 
L 2938 0 
L 2938 2094 
Q 2938 2591 2744 2837 
Q 2550 3084 2163 3084 
Q 1697 3084 1428 2787 
Q 1159 2491 1159 1978 
L 1159 0 
L 581 0 
L 581 3500 
L 1159 3500 
L 1159 2956 
Q 1366 3272 1645 3428 
Q 1925 3584 2291 3584 
Q 2894 3584 3203 3211 
Q 3513 2838 3513 2113 
z
" transform="scale(0.015625)"/>
       <path id="DejaVuSans-6b" d="M 581 4863 
L 1159 4863 
L 1159 1991 
L 2875 3500 
L 3609 3500 
L 1753 1863 
L 3688 0 
L 2938 0 
L 1159 1709 
L 1159 0 
L 581 0 
L 581 4863 
z
" transform="scale(0.015625)"/>
       <path id="DejaVuSans-72" d="M 2631 2963 
Q 2534 3019 2420 3045 
Q 2306 3072 2169 3072 
Q 1681 3072 1420 2755 
Q 1159 2438 1159 1844 
L 1159 0 
L 581 0 
L 581 3500 
L 1159 3500 
L 1159 2956 
Q 1341 3275 1631 3429 
Q 1922 3584 2338 3584 
Q 2397 3584 2469 3576 
Q 2541 3569 2628 3553 
L 2631 2963 
z
" transform="scale(0.015625)"/>
       <path id="DejaVuSans-67" d="M 2906 1791 
Q 2906 2416 2648 2759 
Q 2391 3103 1925 3103 
Q 1463 3103 1205 2759 
Q 947 2416 947 1791 
Q 947 1169 1205 825 
Q 1463 481 1925 481 
Q 2391 481 2648 825 
Q 2906 1169 2906 1791 
z
M 3481 434 
Q 3481 -459 3084 -895 
Q 2688 -1331 1869 -1331 
Q 1566 -1331 1297 -1286 
Q 1028 -1241 775 -1147 
L 775 -588 
Q 1028 -725 1275 -790 
Q 1522 -856 1778 -856 
Q 2344 -856 2625 -561 
Q 2906 -266 2906 331 
L 2906 616 
Q 2728 306 2450 153 
Q 2172 0 1784 0 
Q 1141 0 747 490 
Q 353 981 353 1791 
Q 353 2603 747 3093 
Q 1141 3584 1784 3584 
Q 2172 3584 2450 3431 
Q 2728 3278 2906 2969 
L 2906 3500 
L 3481 3500 
L 3481 434 
z
" transform="scale(0.015625)"/>
      </defs>
      <use xlink:href="#DejaVuSans-4d"/>
      <use xlink:href="#DejaVuSans-69" transform="translate(86.279297 0)"/>
      <use xlink:href="#DejaVuSans-74" transform="translate(114.0625 0)"/>
      <use xlink:href="#DejaVuSans-74" transform="translate(153.271484 0)"/>
      <use xlink:href="#DejaVuSans-65" transform="translate(192.480469 0)"/>
      <use xlink:href="#DejaVuSans-6c" transform="translate(254.003906 0)"/>
      <use xlink:href="#DejaVuSans-70" transform="translate(281.787109 0)"/>
      <use xlink:href="#DejaVuSans-75" transform="translate(345.263672 0)"/>
      <use xlink:href="#DejaVuSans-6e" transform="translate(408.642578 0)"/>
      <use xlink:href="#DejaVuSans-6b" transform="translate(472.021484 0)"/>
      <use xlink:href="#DejaVuSans-74" transform="translate(529.931641 0)"/>
      <use xlink:href="#DejaVuSans-72" transform="translate(569.140625 0)"/>
      <use xlink:href="#DejaVuSans-65" transform="translate(608.003906 0)"/>
      <use xlink:href="#DejaVuSans-67" transform="translate(669.527344 0)"/>
      <use xlink:href="#DejaVuSans-65" transform="translate(733.003906 0)"/>
      <use xlink:href="#DejaVuSans-6c" transform="translate(794.527344 0)"/>
     </g>
    </g>
    <g id="patch_13">
     <path d="M 241.61375 38.476562 
L 261.61375 38.476562 
L 261.61375 31.476562 
L 241.61375 31.476562 
z
" style="fill: #00bcd4; opacity: 0.25; stroke: #00bcd4; stroke-linejoin: miter"/>
    </g>
    <g id="text_6">
     <!-- Trapezregel -->
     <g transform="translate(269.61375 38.476562) scale(0.1 -0.1)">
      <defs>
       <path id="DejaVuSans-54" d="M -19 4666 
L 3928 4666 
L 3928 4134 
L 2272 4134 
L 2272 0 
L 1638 0 
L 1638 4134 
L -19 4134 
L -19 4666 
z
" transform="scale(0.015625)"/>
       <path id="DejaVuSans-7a" d="M 353 3500 
L 3084 3500 
L 3084 2975 
L 922 459 
L 3084 459 
L 3084 0 
L 275 0 
L 275 525 
L 2438 3041 
L 353 3041 
L 353 3500 
z
" transform="scale(0.015625)"/>
      </defs>
      <use xlink:href="#DejaVuSans-54"/>
      <use xlink:href="#DejaVuSans-72" transform="translate(46.333984 0)"/>
      <use xlink:href="#DejaVuSans-61" transform="translate(87.447266 0)"/>
      <use xlink:href="#DejaVuSans-70" transform="translate(148.726562 0)"/>
      <use xlink:href="#DejaVuSans-65" transform="translate(212.203125 0)"/>
      <use xlink:href="#DejaVuSans-7a" transform="translate(273.726562 0)"/>
      <use xlink:href="#DejaVuSans-72" transform="translate(326.216797 0)"/>
      <use xlink:href="#DejaVuSans-65" transform="translate(365.080078 0)"/>
      <use xlink:href="#DejaVuSans-67" transform="translate(426.603516 0)"/>
      <use xlink:href="#DejaVuSans-65" transform="translate(490.080078 0)"/>
      <use xlink:href="#DejaVuSans-6c" transform="translate(551.603516 0)"/>
     </g>
    </g>
    <g id="patch_14">
     <path d="M 241.61375 53.154687 
L 261.61375 53.154687 
L 261.61375 46.154687 
L 241.61375 46.154687 
z
" style="fill: #2e7d32; opacity: 0.25; stroke: #2e7d32; stroke-linejoin: miter"/>
    </g>
    <g id="text_7">
     <!-- Linksseitige Rechtecksregel -->
     <g transform="translate(269.61375 53.154687) scale(0.1 -0.1)">
      <defs>
       <path id="DejaVuSans-4c" d="M 628 4666 
L 1259 4666 
L 1259 531 
L 3531 531 
L 3531 0 
L 628 0 
L 628 4666 
z
" transform="scale(0.015625)"/>
       <path id="DejaVuSans-73" d="M 2834 3397 
L 2834 2853 
Q 2591 2978 2328 3040 
Q 2066 3103 1784 3103 
Q 1356 3103 1142 2972 
Q 928 2841 928 2578 
Q 928 2378 1081 2264 
Q 1234 2150 1697 2047 
L 1894 2003 
Q 2506 1872 2764 1633 
Q 3022 1394 3022 966 
Q 3022 478 2636 193 
Q 2250 -91 1575 -91 
Q 1294 -91 989 -36 
Q 684 19 347 128 
L 347 722 
Q 666 556 975 473 
Q 1284 391 1588 391 
Q 1994 391 2212 530 
Q 2431 669 2431 922 
Q 2431 1156 2273 1281 
Q 2116 1406 1581 1522 
L 1381 1569 
Q 847 1681 609 1914 
Q 372 2147 372 2553 
Q 372 3047 722 3315 
Q 1072 3584 1716 3584 
Q 2034 3584 2315 3537 
Q 2597 3491 2834 3397 
z
" transform="scale(0.015625)"/>
       <path id="DejaVuSans-20" transform="scale(0.015625)"/>
       <path id="DejaVuSans-52" d="M 2841 2188 
Q 3044 2119 3236 1894 
Q 3428 1669 3622 1275 
L 4263 0 
L 3584 0 
L 2988 1197 
Q 2756 1666 2539 1819 
Q 2322 1972 1947 1972 
L 1259 1972 
L 1259 0 
L 628 0 
L 628 4666 
L 2053 4666 
Q 2853 4666 3247 4331 
Q 3641 3997 3641 3322 
Q 3641 2881 3436 2590 
Q 3231 2300 2841 2188 
z
M 1259 4147 
L 1259 2491 
L 2053 2491 
Q 2509 2491 2742 2702 
Q 2975 2913 2975 3322 
Q 2975 3731 2742 3939 
Q 2509 4147 2053 4147 
L 1259 4147 
z
" transform="scale(0.015625)"/>
       <path id="DejaVuSans-63" d="M 3122 3366 
L 3122 2828 
Q 2878 2963 2633 3030 
Q 2388 3097 2138 3097 
Q 1578 3097 1268 2742 
Q 959 2388 959 1747 
Q 959 1106 1268 751 
Q 1578 397 2138 397 
Q 2388 397 2633 464 
Q 2878 531 3122 666 
L 3122 134 
Q 2881 22 2623 -34 
Q 2366 -91 2075 -91 
Q 1284 -91 818 406 
Q 353 903 353 1747 
Q 353 2603 823 3093 
Q 1294 3584 2113 3584 
Q 2378 3584 2631 3529 
Q 2884 3475 3122 3366 
z
" transform="scale(0.015625)"/>
       <path id="DejaVuSans-68" d="M 3513 2113 
L 3513 0 
L 2938 0 
L 2938 2094 
Q 2938 2591 2744 2837 
Q 2550 3084 2163 3084 
Q 1697 3084 1428 2787 
Q 1159 2491 1159 1978 
L 1159 0 
L 581 0 
L 581 4863 
L 1159 4863 
L 1159 2956 
Q 1366 3272 1645 3428 
Q 1925 3584 2291 3584 
Q 2894 3584 3203 3211 
Q 3513 2838 3513 2113 
z
" transform="scale(0.015625)"/>
      </defs>
      <use xlink:href="#DejaVuSans-4c"/>
      <use xlink:href="#DejaVuSans-69" transform="translate(55.712891 0)"/>
      <use xlink:href="#DejaVuSans-6e" transform="translate(83.496094 0)"/>
      <use xlink:href="#DejaVuSans-6b" transform="translate(146.875 0)"/>
      <use xlink:href="#DejaVuSans-73" transform="translate(204.785156 0)"/>
      <use xlink:href="#DejaVuSans-73" transform="translate(256.884766 0)"/>
      <use xlink:href="#DejaVuSans-65" transform="translate(308.984375 0)"/>
      <use xlink:href="#DejaVuSans-69" transform="translate(370.507812 0)"/>
      <use xlink:href="#DejaVuSans-74" transform="translate(398.291016 0)"/>
      <use xlink:href="#DejaVuSans-69" transform="translate(437.5 0)"/>
      <use xlink:href="#DejaVuSans-67" transform="translate(465.283203 0)"/>
      <use xlink:href="#DejaVuSans-65" transform="translate(528.759766 0)"/>
      <use xlink:href="#DejaVuSans-20" transform="translate(590.283203 0)"/>
      <use xlink:href="#DejaVuSans-52" transform="translate(622.070312 0)"/>
      <use xlink:href="#DejaVuSans-65" transform="translate(687.052734 0)"/>
      <use xlink:href="#DejaVuSans-63" transform="translate(748.576172 0)"/>
      <use xlink:href="#DejaVuSans-68" transform="translate(803.556641 0)"/>
      <use xlink:href="#DejaVuSans-74" transform="translate(866.935547 0)"/>
      <use xlink:href="#DejaVuSans-65" transform="translate(906.144531 0)"/>
      <use xlink:href="#DejaVuSans-63" transform="translate(967.667969 0)"/>
      <use xlink:href="#DejaVuSans-6b" transform="translate(1022.648438 0)"/>
      <use xlink:href="#DejaVuSans-73" transform="translate(1080.558594 0)"/>
      <use xlink:href="#DejaVuSans-72" transform="translate(1132.658203 0)"/>
      <use xlink:href="#DejaVuSans-65" transform="translate(1171.521484 0)"/>
      <use xlink:href="#DejaVuSans-67" transform="translate(1233.044922 0)"/>
      <use xlink:href="#DejaVuSans-65" transform="translate(1296.521484 0)"/>
      <use xlink:href="#DejaVuSans-6c" transform="translate(1358.044922 0)"/>
     </g>
    </g>
    <g id="patch_15">
     <path d="M 241.61375 67.832812 
L 261.61375 67.832812 
L 261.61375 60.832812 
L 241.61375 60.832812 
z
" style="fill: #0d47a1; opacity: 0.25; stroke: #0d47a1; stroke-linejoin: miter"/>
    </g>
    <g id="text_8">
     <!-- Summierte Trapezregel -->
     <g transform="translate(269.61375 67.832812) scale(0.1 -0.1)">
      <defs>
       <path id="DejaVuSans-53" d="M 3425 4513 
L 3425 3897 
Q 3066 4069 2747 4153 
Q 2428 4238 2131 4238 
Q 1616 4238 1336 4038 
Q 1056 3838 1056 3469 
Q 1056 3159 1242 3001 
Q 1428 2844 1947 2747 
L 2328 2669 
Q 3034 2534 3370 2195 
Q 3706 1856 3706 1288 
Q 3706 609 3251 259 
Q 2797 -91 1919 -91 
Q 1588 -91 1214 -16 
Q 841 59 441 206 
L 441 856 
Q 825 641 1194 531 
Q 1563 422 1919 422 
Q 2459 422 2753 634 
Q 3047 847 3047 1241 
Q 3047 1584 2836 1778 
Q 2625 1972 2144 2069 
L 1759 2144 
Q 1053 2284 737 2584 
Q 422 2884 422 3419 
Q 422 4038 858 4394 
Q 1294 4750 2059 4750 
Q 2388 4750 2728 4690 
Q 3069 4631 3425 4513 
z
" transform="scale(0.015625)"/>
       <path id="DejaVuSans-6d" d="M 3328 2828 
Q 3544 3216 3844 3400 
Q 4144 3584 4550 3584 
Q 5097 3584 5394 3201 
Q 5691 2819 5691 2113 
L 5691 0 
L 5113 0 
L 5113 2094 
Q 5113 2597 4934 2840 
Q 4756 3084 4391 3084 
Q 3944 3084 3684 2787 
Q 3425 2491 3425 1978 
L 3425 0 
L 2847 0 
L 2847 2094 
Q 2847 2600 2669 2842 
Q 2491 3084 2119 3084 
Q 1678 3084 1418 2786 
Q 1159 2488 1159 1978 
L 1159 0 
L 581 0 
L 581 3500 
L 1159 3500 
L 1159 2956 
Q 1356 3278 1631 3431 
Q 1906 3584 2284 3584 
Q 2666 3584 2933 3390 
Q 3200 3197 3328 2828 
z
" transform="scale(0.015625)"/>
      </defs>
      <use xlink:href="#DejaVuSans-53"/>
      <use xlink:href="#DejaVuSans-75" transform="translate(63.476562 0)"/>
      <use xlink:href="#DejaVuSans-6d" transform="translate(126.855469 0)"/>
      <use xlink:href="#DejaVuSans-6d" transform="translate(224.267578 0)"/>
      <use xlink:href="#DejaVuSans-69" transform="translate(321.679688 0)"/>
      <use xlink:href="#DejaVuSans-65" transform="translate(349.462891 0)"/>
      <use xlink:href="#DejaVuSans-72" transform="translate(410.986328 0)"/>
      <use xlink:href="#DejaVuSans-74" transform="translate(452.099609 0)"/>
      <use xlink:href="#DejaVuSans-65" transform="translate(491.308594 0)"/>
      <use xlink:href="#DejaVuSans-20" transform="translate(552.832031 0)"/>
      <use xlink:href="#DejaVuSans-54" transform="translate(584.619141 0)"/>
      <use xlink:href="#DejaVuSans-72" transform="translate(630.953125 0)"/>
      <use xlink:href="#DejaVuSans-61" transform="translate(672.066406 0)"/>
      <use xlink:href="#DejaVuSans-70" transform="translate(733.345703 0)"/>
      <use xlink:href="#DejaVuSans-65" transform="translate(796.822266 0)"/>
      <use xlink:href="#DejaVuSans-7a" transform="translate(858.345703 0)"/>
      <use xlink:href="#DejaVuSans-72" transform="translate(910.835938 0)"/>
      <use xlink:href="#DejaVuSans-65" transform="translate(949.699219 0)"/>
      <use xlink:href="#DejaVuSans-67" transform="translate(1011.222656 0)"/>
      <use xlink:href="#DejaVuSans-65" transform="translate(1074.699219 0)"/>
      <use xlink:href="#DejaVuSans-6c" transform="translate(1136.222656 0)"/>
     </g>
    </g>
   </g>
  </g>
 </g>
 <defs>
  <clipPath id="p49c4eed1f4">
   <rect x="20.878125" y="7.2" width="396.32" height="236.0734"/>
  </clipPath>
 </defs>
</svg>
